<svg width="470" height="128" viewBox="0 0 470 128" fill="none" xmlns="http://www.w3.org/2000/svg">
<path d="M17 34.6C17 28.4394 17 25.3591 18.1989 23.0061C19.2535 20.9363 20.9363 19.2535 23.0061 18.1989C25.3591 17 28.4394 17 34.6 17H94.4C100.561 17 103.641 17 105.994 18.1989C108.064 19.2535 109.746 20.9363 110.801 23.0061C112 25.3591 112 28.4394 112 34.6V40C112 65.2024 112 77.8035 107.095 87.4296C102.781 95.8969 95.8969 102.781 87.4296 107.095C77.8035 112 65.2024 112 40 112H34.6C28.4394 112 25.3591 112 23.0061 110.801C20.9363 109.746 19.2535 108.064 18.1989 105.994C17 103.641 17 100.561 17 94.4V34.6Z" fill="white"/>
<path d="M26 54.2821C26 54.0202 26 53.8892 26.0022 53.7785C26.1211 47.8769 30.8769 43.1211 36.7785 43.0022C36.8892 43 37.0202 43 37.2821 43H56C72.5685 43 86 56.4315 86 73C86 89.5685 72.5685 103 56 103H37.2821C37.0202 103 36.8892 103 36.7785 102.998C30.8769 102.879 26.1211 98.1231 26.0022 92.2215C26 92.1108 26 91.9798 26 91.7179V54.2821Z" fill="#FFCC00"/>
<circle cx="94" cy="36" r="12" fill="#2C3E50"/>
<circle cx="100.5" cy="35.5" r="4.5" fill="white"/>
<path d="M142.574 51H130.477V18.2727H142.558C145.892 18.2727 148.763 18.9279 151.171 20.2383C153.589 21.538 155.454 23.413 156.764 25.8633C158.075 28.3029 158.73 31.2219 158.73 34.6204C158.73 38.0295 158.075 40.9592 156.764 43.4094C155.464 45.8597 153.605 47.7401 151.187 49.0504C148.769 50.3501 145.898 51 142.574 51ZM138.387 44.2564H142.27C144.103 44.2564 145.653 43.9474 146.92 43.3295C148.199 42.701 149.163 41.6836 149.813 40.2773C150.473 38.8604 150.804 36.9748 150.804 34.6204C150.804 32.266 150.473 30.391 149.813 28.9954C149.152 27.5891 148.178 26.5771 146.888 25.9592C145.61 25.3306 144.033 25.0163 142.158 25.0163H138.387V44.2564ZM174.822 51.4634C172.254 51.4634 170.038 50.9574 168.174 49.9453C166.32 48.9226 164.893 47.4684 163.891 45.5827C162.901 43.6864 162.405 41.4332 162.405 38.8232C162.405 36.2876 162.906 34.0717 163.907 32.1754C164.909 30.2685 166.32 28.7876 168.142 27.733C169.964 26.6676 172.11 26.1349 174.582 26.1349C176.329 26.1349 177.927 26.4066 179.376 26.9499C180.825 27.4933 182.077 28.2976 183.131 29.3629C184.186 30.4283 185.006 31.744 185.592 33.31C186.178 34.8654 186.471 36.6499 186.471 38.6634V40.6129H165.138V36.0746H179.2C179.19 35.2436 178.993 34.5032 178.609 33.8533C178.225 33.2035 177.698 32.6974 177.027 32.3352C176.366 31.9624 175.605 31.7759 174.742 31.7759C173.868 31.7759 173.085 31.973 172.393 32.3672C171.7 32.7507 171.152 33.2781 170.747 33.9492C170.342 34.6097 170.129 35.3608 170.108 36.2024V40.8207C170.108 41.8221 170.305 42.701 170.699 43.4574C171.093 44.2031 171.652 44.7837 172.377 45.1992C173.101 45.6147 173.964 45.8224 174.966 45.8224C175.658 45.8224 176.287 45.7266 176.851 45.5348C177.416 45.343 177.901 45.0607 178.305 44.6879C178.71 44.315 179.014 43.8569 179.216 43.3136L186.391 43.5213C186.093 45.13 185.438 46.5309 184.426 47.7241C183.424 48.9066 182.109 49.8281 180.479 50.4886C178.849 51.1385 176.963 51.4634 174.822 51.4634ZM201.936 51.4634C199.369 51.4634 197.153 50.9574 195.288 49.9453C193.435 48.9226 192.007 47.4684 191.006 45.5827C190.015 43.6864 189.519 41.4332 189.519 38.8232C189.519 36.2876 190.02 34.0717 191.022 32.1754C192.023 30.2685 193.435 28.7876 195.256 27.733C197.078 26.6676 199.225 26.1349 201.696 26.1349C203.443 26.1349 205.041 26.4066 206.49 26.9499C207.939 27.4933 209.191 28.2976 210.246 29.3629C211.3 30.4283 212.121 31.744 212.707 33.31C213.293 34.8654 213.585 36.6499 213.585 38.6634V40.6129H192.252V36.0746H206.315C206.304 35.2436 206.107 34.5032 205.723 33.8533C205.34 33.2035 204.812 32.6974 204.141 32.3352C203.481 31.9624 202.719 31.7759 201.856 31.7759C200.983 31.7759 200.199 31.973 199.507 32.3672C198.815 32.7507 198.266 33.2781 197.861 33.9492C197.456 34.6097 197.243 35.3608 197.222 36.2024V40.8207C197.222 41.8221 197.419 42.701 197.813 43.4574C198.207 44.2031 198.767 44.7837 199.491 45.1992C200.215 45.6147 201.078 45.8224 202.08 45.8224C202.772 45.8224 203.401 45.7266 203.965 45.5348C204.53 45.343 205.015 45.0607 205.42 44.6879C205.824 44.315 206.128 43.8569 206.331 43.3136L213.506 43.5213C213.207 45.13 212.552 46.5309 211.54 47.7241C210.539 48.9066 209.223 49.8281 207.593 50.4886C205.963 51.1385 204.077 51.4634 201.936 51.4634ZM217.577 60.2045V26.4545H225.311V30.6573H225.551C225.87 29.9116 226.323 29.1925 226.909 28.5C227.506 27.8075 228.262 27.2429 229.178 26.8061C230.105 26.3587 231.213 26.1349 232.502 26.1349C234.206 26.1349 235.799 26.5824 237.28 27.4773C238.771 28.3722 239.975 29.7518 240.892 31.6161C241.808 33.4805 242.266 35.8562 242.266 38.7433C242.266 41.5238 241.824 43.8516 240.939 45.7266C240.066 47.6016 238.883 49.0078 237.392 49.9453C235.911 50.8828 234.265 51.3516 232.454 51.3516C231.218 51.3516 230.148 51.1491 229.242 50.7443C228.336 50.3395 227.575 49.8068 226.957 49.1463C226.35 48.4858 225.881 47.7773 225.551 47.021H225.391V60.2045H217.577ZM225.231 38.7273C225.231 40.0483 225.407 41.1989 225.758 42.179C226.121 43.1591 226.637 43.9208 227.308 44.4641C227.99 44.9968 228.805 45.2631 229.753 45.2631C230.712 45.2631 231.527 44.9968 232.198 44.4641C232.869 43.9208 233.376 43.1591 233.716 42.179C234.068 41.1989 234.244 40.0483 234.244 38.7273C234.244 37.4062 234.068 36.261 233.716 35.2915C233.376 34.3221 232.869 33.571 232.198 33.0384C231.538 32.5057 230.723 32.2393 229.753 32.2393C228.795 32.2393 227.98 32.5004 227.308 33.0224C226.637 33.5444 226.121 34.2901 225.758 35.2596C225.407 36.229 225.231 37.3849 225.231 38.7273ZM264.051 28.0845C263.944 26.9126 263.47 26.0018 262.628 25.3519C261.797 24.6914 260.61 24.3612 259.065 24.3612C258.042 24.3612 257.19 24.4943 256.508 24.7607C255.826 25.027 255.315 25.3945 254.974 25.8633C254.633 26.3214 254.457 26.8487 254.447 27.4453C254.425 27.9354 254.521 28.3668 254.734 28.7397C254.958 29.1126 255.278 29.4428 255.693 29.7305C256.119 30.0075 256.631 30.2525 257.227 30.4656C257.824 30.6786 258.495 30.8651 259.241 31.0249L262.053 31.6641C263.672 32.0156 265.1 32.4844 266.336 33.0703C267.582 33.6562 268.626 34.354 269.468 35.1637C270.32 35.9734 270.965 36.9055 271.402 37.9602C271.838 39.0149 272.062 40.1974 272.073 41.5078C272.062 43.5746 271.54 45.3484 270.507 46.8292C269.473 48.31 267.987 49.4446 266.048 50.233C264.12 51.0213 261.792 51.4155 259.065 51.4155C256.327 51.4155 253.941 51.0053 251.906 50.185C249.871 49.3647 248.289 48.1183 247.16 46.4457C246.03 44.7731 245.45 42.6584 245.418 40.1016H252.992C253.056 41.1562 253.339 42.0352 253.839 42.7383C254.34 43.4414 255.027 43.9741 255.901 44.3363C256.785 44.6985 257.808 44.8796 258.969 44.8796C260.034 44.8796 260.94 44.7358 261.686 44.4482C262.442 44.1605 263.023 43.761 263.427 43.2496C263.832 42.7383 264.04 42.1523 264.051 41.4918C264.04 40.8739 263.848 40.3466 263.475 39.9098C263.103 39.4624 262.527 39.0788 261.75 38.7592C260.983 38.429 260.002 38.1254 258.809 37.8484L255.389 37.0494C252.556 36.3995 250.324 35.3501 248.694 33.9013C247.064 32.4418 246.254 30.4709 246.265 27.9886C246.254 25.9645 246.797 24.1907 247.895 22.6673C248.992 21.1438 250.51 19.956 252.449 19.1037C254.388 18.2514 256.599 17.8253 259.081 17.8253C261.616 17.8253 263.816 18.2567 265.681 19.1197C267.556 19.9719 269.01 21.1705 270.043 22.7152C271.077 24.2599 271.604 26.0497 271.625 28.0845H264.051ZM289.922 26.4545V32.2074H274.438V26.4545H289.922ZM277.682 20.5739H285.496V43.2816C285.496 43.761 285.571 44.1499 285.72 44.4482C285.88 44.7358 286.109 44.9435 286.407 45.0714C286.705 45.1886 287.062 45.2472 287.478 45.2472C287.776 45.2472 288.09 45.2205 288.42 45.1673C288.761 45.1033 289.017 45.0501 289.187 45.0075L290.37 50.6484C289.997 50.755 289.47 50.8881 288.788 51.0479C288.117 51.2077 287.312 51.3089 286.375 51.3516C284.543 51.4368 282.971 51.2237 281.661 50.7124C280.361 50.1903 279.365 49.3807 278.672 48.2834C277.991 47.1861 277.66 45.8065 277.682 44.1445V20.5739ZM309.746 40.4052V26.4545H317.544V51H310.097V46.4297H309.842C309.298 47.9318 308.372 49.125 307.061 50.0092C305.761 50.8828 304.19 51.3196 302.347 51.3196C300.674 51.3196 299.204 50.9361 297.937 50.169C296.669 49.402 295.683 48.3313 294.98 46.957C294.277 45.5721 293.92 43.9528 293.91 42.0991V26.4545H301.724V40.565C301.734 41.8967 302.086 42.946 302.778 43.7131C303.471 44.4801 304.414 44.8636 305.607 44.8636C306.385 44.8636 307.082 44.6932 307.7 44.3523C308.329 44.0007 308.824 43.4947 309.187 42.8342C309.559 42.163 309.746 41.3533 309.746 40.4052ZM331.483 51.3516C329.672 51.3516 328.026 50.8828 326.545 49.9453C325.064 49.0078 323.882 47.6016 322.997 45.7266C322.113 43.8516 321.671 41.5238 321.671 38.7433C321.671 35.8562 322.129 33.4805 323.045 31.6161C323.961 29.7518 325.16 28.3722 326.641 27.4773C328.132 26.5824 329.736 26.1349 331.451 26.1349C332.74 26.1349 333.843 26.3587 334.759 26.8061C335.675 27.2429 336.431 27.8075 337.028 28.5C337.624 29.1925 338.077 29.9116 338.386 30.6573H338.546V18.2727H346.36V51H338.626V47.021H338.386C338.056 47.7773 337.587 48.4858 336.98 49.1463C336.373 49.8068 335.611 50.3395 334.695 50.7443C333.789 51.1491 332.719 51.3516 331.483 51.3516ZM334.199 45.2631C335.148 45.2631 335.957 44.9968 336.628 44.4641C337.3 43.9208 337.816 43.1591 338.178 42.179C338.541 41.1989 338.722 40.0483 338.722 38.7273C338.722 37.3849 338.541 36.229 338.178 35.2596C337.827 34.2901 337.31 33.5444 336.628 33.0224C335.957 32.5004 335.148 32.2393 334.199 32.2393C333.23 32.2393 332.41 32.5057 331.738 33.0384C331.067 33.571 330.556 34.3221 330.204 35.2915C329.863 36.261 329.693 37.4062 329.693 38.7273C329.693 40.0483 329.869 41.1989 330.22 42.179C330.572 43.1591 331.078 43.9208 331.738 44.4641C332.41 44.9968 333.23 45.2631 334.199 45.2631ZM362.776 51.4634C360.208 51.4634 357.992 50.9574 356.128 49.9453C354.274 48.9226 352.847 47.4684 351.845 45.5827C350.855 43.6864 350.359 41.4332 350.359 38.8232C350.359 36.2876 350.86 34.0717 351.861 32.1754C352.863 30.2685 354.274 28.7876 356.096 27.733C357.918 26.6676 360.065 26.1349 362.536 26.1349C364.283 26.1349 365.881 26.4066 367.33 26.9499C368.779 27.4933 370.031 28.2976 371.085 29.3629C372.14 30.4283 372.96 31.744 373.546 33.31C374.132 34.8654 374.425 36.6499 374.425 38.6634V40.6129H353.092V36.0746H367.154C367.144 35.2436 366.947 34.5032 366.563 33.8533C366.18 33.2035 365.652 32.6974 364.981 32.3352C364.321 31.9624 363.559 31.7759 362.696 31.7759C361.822 31.7759 361.039 31.973 360.347 32.3672C359.654 32.7507 359.106 33.2781 358.701 33.9492C358.296 34.6097 358.083 35.3608 358.062 36.2024V40.8207C358.062 41.8221 358.259 42.701 358.653 43.4574C359.047 44.2031 359.606 44.7837 360.331 45.1992C361.055 45.6147 361.918 45.8224 362.92 45.8224C363.612 45.8224 364.241 45.7266 364.805 45.5348C365.37 45.343 365.855 45.0607 366.26 44.6879C366.664 44.315 366.968 43.8569 367.17 43.3136L374.345 43.5213C374.047 45.13 373.392 46.5309 372.38 47.7241C371.378 48.9066 370.063 49.8281 368.433 50.4886C366.803 51.1385 364.917 51.4634 362.776 51.4634ZM386.231 37.0014V51H378.416V26.4545H385.847V30.9609H386.119C386.662 29.4588 387.589 28.2816 388.899 27.4293C390.21 26.5664 391.77 26.1349 393.581 26.1349C395.307 26.1349 396.804 26.5238 398.072 27.3015C399.35 28.0685 400.341 29.1445 401.044 30.5295C401.758 31.9038 402.11 33.5124 402.099 35.3555V51H394.285V36.8896C394.295 35.5259 393.949 34.4606 393.246 33.6935C392.553 32.9265 391.589 32.543 390.354 32.543C389.533 32.543 388.809 32.7241 388.18 33.0863C387.562 33.4379 387.083 33.9439 386.742 34.6044C386.412 35.2649 386.241 36.0639 386.231 37.0014ZM420.792 26.4545V32.2074H405.307V26.4545H420.792ZM408.551 20.5739H416.365V43.2816C416.365 43.761 416.44 44.1499 416.589 44.4482C416.749 44.7358 416.978 44.9435 417.276 45.0714C417.574 45.1886 417.931 45.2472 418.347 45.2472C418.645 45.2472 418.959 45.2205 419.29 45.1673C419.63 45.1033 419.886 45.0501 420.057 45.0075L421.239 50.6484C420.866 50.755 420.339 50.8881 419.657 51.0479C418.986 51.2077 418.182 51.3089 417.244 51.3516C415.412 51.4368 413.84 51.2237 412.53 50.7124C411.23 50.1903 410.234 49.3807 409.542 48.2834C408.86 47.1861 408.53 45.8065 408.551 44.1445V20.5739Z" fill="white"/>
<path d="M142.4 84.62H170.075V89.435H142.4V84.62ZM142.49 64.865H170.03V73.865H165.08V69.455H147.215V74.09H142.49V64.865ZM153.47 80.12H158.915V104.6H153.47V80.12ZM160.4 87.05C162.695 91.595 167.105 96.185 171.605 98.57C170.39 99.56 168.68 101.45 167.825 102.8C163.19 99.695 158.825 94.115 156.26 88.445L160.4 87.05ZM152.255 86.465L156.35 87.815C153.605 94.205 148.835 99.965 143.165 103.025C142.4 101.81 140.78 99.92 139.655 98.975C145.01 96.545 149.825 91.64 152.255 86.465ZM149.96 71.39L154.82 72.965C152.57 76.835 148.835 80.84 145.505 83.225C144.695 82.28 142.85 80.39 141.77 79.535C144.965 77.6 148.16 74.495 149.96 71.39ZM157.205 73.55L161.075 71.03C164.135 73.73 167.915 77.645 169.67 80.345L165.53 83.18C163.955 80.525 160.31 76.43 157.205 73.55ZM131.015 67.34L133.715 63.2C136.055 64.28 139.52 66.08 141.275 67.34L138.485 71.93C136.865 70.625 133.445 68.6 131.015 67.34ZM129.215 79.535L131.735 75.485C134.255 76.655 137.9 78.68 139.745 80.12L137.135 84.62C135.425 83.135 131.825 80.885 129.215 79.535ZM129.98 100.73C132.005 97.355 134.93 91.775 137.225 86.555L140.78 90.29C138.755 95.015 136.28 100.1 134.03 104.465L129.98 100.73ZM184.25 75.71H215.525V79.94H184.25V75.71ZM184.61 88.805H209.315V93.035H184.61V88.805ZM190.37 72.74H195.455V82.955H203.69V72.74H209V87.005H190.37V72.74ZM207.92 88.805H208.955L209.9 88.625L213.275 90.335C208.325 99.785 197.255 103.34 184.565 104.735C184.16 103.475 183.215 101.405 182.405 100.235C193.925 99.38 204.185 96.41 207.92 89.48V88.805ZM192.215 91.955C196.58 96.95 205.67 99.56 216.695 100.325C215.57 101.45 214.22 103.655 213.59 105.005C202.025 103.835 193.115 100.415 187.58 93.71L192.215 91.955ZM180.515 66.665H215.975V71.66H180.515V66.665ZM177.995 66.665H183.35V78.68C183.35 86.285 182.765 97.58 179.03 104.96C177.905 104.15 175.475 103.025 174.08 102.62C177.68 95.735 177.995 85.61 177.995 78.725V66.665ZM193.79 63.65L199.28 62.435C200.225 64.415 201.215 66.935 201.485 68.6L195.68 69.995C195.455 68.33 194.645 65.63 193.79 63.65ZM228.485 78.185H249.23V82.82H228.485V78.185ZM220.43 88.265H260.705V93.26H220.43V88.265ZM237.62 85.43H243.155V99.02C243.155 101.81 242.435 103.25 240.32 103.97C238.205 104.78 235.325 104.87 231.5 104.87C231.14 103.34 230.15 101.045 229.295 99.65C232.175 99.785 235.55 99.785 236.45 99.74C237.35 99.695 237.62 99.515 237.62 98.885V85.43ZM247.475 78.185H248.825L249.95 77.915L253.415 80.615C249.995 83.675 245.225 86.78 240.41 88.67C239.735 87.725 238.385 86.24 237.62 85.43C241.4 83.945 245.63 81.2 247.475 79.13V78.185ZM220.97 69.95H260.21V79.85H254.855V74.72H226.055V79.85H220.97V69.95ZM251.795 63.11L257.42 64.775C255.44 67.655 253.145 70.715 251.345 72.65L247.115 71.075C248.78 68.915 250.76 65.585 251.795 63.11ZM224.75 65.27L229.295 63.2C230.915 65 232.715 67.385 233.435 69.14L228.575 71.39C227.945 69.725 226.235 67.115 224.75 65.27ZM236.405 64.145L241.175 62.345C242.615 64.325 244.145 67.07 244.73 68.915L239.6 70.85C239.15 69.05 237.71 66.215 236.405 64.145ZM265.205 76.43H305.705V81.2H265.205V76.43ZM269.12 67.655H294.86V72.335H269.12V67.655ZM277.04 92.135H297.155V96.185H277.04V92.135ZM277.04 99.2H297.155V103.745H277.04V99.2ZM279.74 62.795H285.05V79.085H279.74V62.795ZM299.54 64.1L304.175 66.485C295.355 78.77 281.63 87.815 267.05 93.17C266.42 92 264.8 89.75 263.81 88.67C278.435 83.99 291.665 75.395 299.54 64.1ZM274.025 84.8H300.575V104.915H294.95V89.21H279.425V105.095H274.025V84.8Z" fill="white"/>
</svg>
